<svg width="14" height="14" viewBox="0 0 14 14" fill="none" xmlns="http://www.w3.org/2000/svg">
<path fill-rule="evenodd" clip-rule="evenodd" d="M11.2875 5.85658C10.8908 3.84408 9.12333 2.33325 7 2.33325C5.31417 2.33325 3.85 3.28992 3.12083 4.68992C1.365 4.87659 0 6.36408 0 8.16658C0 10.0974 1.56917 11.6666 3.5 11.6666H11.0833C12.6933 11.6666 14 10.3599 14 8.74992C14 7.20992 12.8042 5.96158 11.2875 5.85658ZM11.0833 10.4999H3.5C2.21083 10.4999 1.16667 9.45575 1.16667 8.16658C1.16667 6.97075 2.05917 5.97325 3.24333 5.85075L3.8675 5.78659L4.15917 5.23242C4.71333 4.16492 5.79833 3.49992 7 3.49992C8.52833 3.49992 9.84667 4.58492 10.1442 6.08408L10.3192 6.95908L11.2117 7.02325C12.1217 7.08158 12.8333 7.84575 12.8333 8.74992C12.8333 9.71242 12.0458 10.4999 11.0833 10.4999ZM6.15417 5.83325H7.84583V7.58325H9.33333L7 9.91658L4.66667 7.58325H6.15417V5.83325Z" fill="#0275D8"/>
</svg>
